<?xml version="1.0" encoding="UTF-8"?>
<svg width="1440px" height="5492px" viewBox="0 0 1440 5492" version="1.1" xmlns="http://www.w3.org/2000/svg" xmlns:xlink="http://www.w3.org/1999/xlink">
    <!-- Generator: Sketch 43.2 (39069) - http://www.bohemiancoding.com/sketch -->
    <title>background pattern</title>
    <desc>Created with Sketch.</desc>
    <defs></defs>
    <g id="Page-1" stroke="none" stroke-width="1" fill="none" fill-rule="evenodd">
        <g id="Home-Page-Opt-5" transform="translate(0.000000, -155.000000)">
            <g id="background-pattern" transform="translate(-44.000000, 156.000000)">
                <g id="Squares" transform="translate(122.000000, 934.000000)" fill="#027FF2">
                    <g id="Squares-">
                        <rect id="Rectangle-2" transform="translate(647.000000, 4005.000000) rotate(45.000000) translate(-647.000000, -4005.000000) " x="645" y="4001" width="4" height="8"></rect>
                        <rect id="Rectangle-2-Copy-4" transform="translate(644.000000, 3536.000000) rotate(45.000000) translate(-644.000000, -3536.000000) " x="642" y="3532" width="4" height="8"></rect>
                        <rect id="Rectangle-2-Copy" x="1094" y="3829" width="8" height="8"></rect>
                        <rect id="Rectangle-2-Copy-2" x="333" y="3960" width="8" height="8"></rect>
                        <rect id="Rectangle-2-Copy-3" transform="translate(5.000000, 3639.000000) rotate(45.000000) translate(-5.000000, -3639.000000) " x="3" y="3635" width="4" height="8"></rect>
                        <rect id="Rectangle-2" x="645" y="2903" width="8" height="8"></rect>
                        <rect id="Rectangle-2-Copy-4" x="642" y="2434" width="8" height="8"></rect>
                        <rect id="Rectangle-2-Copy" transform="translate(1096.000000, 2735.000000) rotate(45.000000) translate(-1096.000000, -2735.000000) " x="1094" y="2731" width="4" height="8"></rect>
                        <rect id="Rectangle-2-Copy-2" x="333" y="2862" width="8" height="8"></rect>
                        <rect id="Rectangle-2-Copy-3" x="3" y="2537" width="8" height="8"></rect>
                        <rect id="Rectangle-2" transform="translate(734.000000, 473.000000) rotate(45.000000) translate(-734.000000, -473.000000) " x="732" y="469" width="4" height="8"></rect>
                        <rect id="Rectangle-2-Copy-4" x="729" y="0" width="8" height="8"></rect>
                        <rect id="Rectangle-2-Copy" x="1181" y="297" width="8" height="8"></rect>
                        <rect id="Rectangle-2-Copy-2" x="420" y="428" width="8" height="8"></rect>
                        <rect id="Rectangle-2-Copy-3" x="90" y="103" width="8" height="8"></rect>
                        <rect id="Rectangle-2" x="645" y="1610" width="8" height="8"></rect>
                        <rect id="Rectangle-2-Copy-4" transform="translate(644.000000, 1145.000000) rotate(30.000000) translate(-644.000000, -1145.000000) " x="642" y="1141" width="4" height="8"></rect>
                        <rect id="Rectangle-2-Copy" transform="translate(1096.000000, 1442.000000) rotate(30.000000) translate(-1096.000000, -1442.000000) " x="1094" y="1438" width="4" height="8"></rect>
                        <rect id="Rectangle-2-Copy-2" transform="translate(335.000000, 1573.000000) rotate(30.000000) translate(-335.000000, -1573.000000) " x="333" y="1569" width="4" height="8"></rect>
                        <rect id="Rectangle-2-Copy-3" transform="translate(5.000000, 1248.000000) rotate(30.000000) translate(-5.000000, -1248.000000) " x="3" y="1244" width="4" height="8"></rect>
                    </g>
                </g>
                <g id="Ovals" transform="translate(184.000000, 1589.000000)" stroke-width="3" stroke="#1DFFC2">
                    <circle id="Oval" cx="610" cy="416" r="8"></circle>
                    <circle id="Oval-Copy" cx="704" cy="1000" r="12"></circle>
                    <circle id="Oval-Copy-2" cx="516" cy="1572" r="16"></circle>
                    <circle id="Oval" cx="356.752309" cy="1892.63961" r="8"></circle>
                    <circle id="Oval-Copy" cx="834.513852" cy="2243.12193" r="12"></circle>
                    <circle id="Oval-Copy-2" cx="1104.386" cy="2784.52309" r="16"></circle>
                    <circle id="Oval" cx="1229.38896" cy="3794.38896" r="8"></circle>
                    <circle id="Oval-Copy" cx="653.38896" cy="3888.38896" r="12"></circle>
                    <circle id="Oval-Copy-2" cx="89.3889604" cy="3700.38896" r="16"></circle>
                    <circle id="Oval" cx="8" cy="98" r="8"></circle>
                    <circle id="Oval-Copy" cx="592" cy="12" r="12"></circle>
                    <circle id="Oval-Copy-2" cx="1164" cy="208" r="16"></circle>
                </g>
                <g id="Lines" stroke="#00FFBA" stroke-width="2" stroke-linecap="square">
                    <path d="M37.6443317,3643.42904 L159.035851,3746.86323 M173.427786,3759.12618 L175.327651,3760.745 M189.817236,3773.09116 L291.637927,3859.84961 M391.248314,3944.72474 L462.491554,4005.42904 M645.820462,4161.63828 L798.805211,4291.99215" id="Line-Copy-9" transform="translate(418.224771, 3967.710594) scale(-1, 1) translate(-418.224771, -3967.710594) "></path>
                    <path d="M43,0 L194.85132,130.158275" id="Line-Copy-6"></path>
                    <path d="M0,1176 L267.072621,1403.56484" id="Line-Copy-8"></path>
                    <path d="M1364.07262,3110 L1491.23566,3218.35194" id="Path" transform="translate(1427.654140, 3164.175969) scale(-1, 1) translate(-1427.654140, -3164.175969) "></path>
                    <path d="M1340,2318 L1484.23178,2440.89572" id="Path"></path>
                    <path d="M793,643 L1478.04479,1226.7068" id="Line-Copy-7"></path>
                </g>
            </g>
        </g>
    </g>
</svg>