<?xml version="1.0" encoding="UTF-8"?>
<svg width="80px" height="80px" viewBox="0 0 80 80" version="1.1" xmlns="http://www.w3.org/2000/svg" xmlns:xlink="http://www.w3.org/1999/xlink">
    <!-- Generator: Sketch 43.2 (39069) - http://www.bohemiancoding.com/sketch -->
    <title>logologo</title>
    <desc>Created with Sketch.</desc>
    <defs></defs>
    <g id="Symbols" stroke="none" stroke-width="1" fill="none" fill-rule="evenodd">
        <g id="logo" stroke="#4A4A4A" stroke-width="2">
            <path d="M39.0717249,74.3412006 C63.0070938,74.3412006 61.5184018,56.016984 64.9437509,38.4620703 C66.8963566,28.4549659 64.4555994,16.7393315 58.5977822,11.8578172 C52.7965294,7.02343985 42.377112,6 34.4342863,6 C17.5843743,6 14.1760018,15.2748772 15.1523047,27.9668145 C15.4855184,32.2985927 16.0659246,38.1192531 15.6404561,44.0758118 C15.1523047,50.9099318 14.8191697,58.1378536 16.1286076,63.1137176 C18.5986633,72.4999293 25.4034848,74.3412006 39.0717249,74.3412006 Z" id="Oval" fill="#FFFFFF"></path>
            <g id="ansuz" transform="translate(32.000000, 12.000000)" stroke-linecap="round">
                <path d="M1,0 L1,55.0817574" id="Path-2" stroke-linejoin="round"></path>
                <path d="M1,1 L16,16" id="Path-3"></path>
                <path d="M1,21 L16,36" id="Path-4"></path>
            </g>
        </g>
    </g>
</svg>